<svg width="40" height="39" viewBox="0 0 40 39" fill="none" xmlns="http://www.w3.org/2000/svg">
    <g clip-path="url(#clip0_320_9994)">
        <path d="M20 0C8.94768 0 0 8.72399 0 19.5C0 30.276 8.94768 39 20 39C31.0523 39 40 30.2645 40 19.5C40 8.73545 31.0406 0 20 0ZM38.6949 19.5C38.6949 29.5653 30.3233 37.7275 20 37.7275C9.67666 37.7275 1.30511 29.5653 1.30511 19.5C1.30511 9.43474 9.67666 1.27249 20 1.27249C30.3233 1.27249 38.6949 9.43474 38.6949 19.5Z" fill="#6F6F6F"/>
        <path d="M20.0003 7.93298V8.56349C26.1849 8.56349 31.2055 13.47 31.2055 19.4885H31.8521C31.8521 13.1146 26.5494 7.93298 20.0003 7.93298ZM20.0003 30.425C13.8157 30.425 8.79512 25.5185 8.79512 19.5H8.14844C8.14844 25.8854 13.463 31.067 20.012 31.067" fill="#6F6F6F"/>
        <path d="M29.6871 11.223C29.9575 11.5096 30.3455 11.9682 30.5689 12.2433L34.6254 9.7442C34.4255 9.48054 34.0963 9.09076 33.8611 8.81563L31.2979 10.4664L31.1216 10.6155L31.2509 10.432L32.3796 8.23098L31.5801 7.45143L29.3226 8.55196L29.1345 8.67807L29.2873 8.50611L30.9805 6.00699C30.6865 5.75479 30.3926 5.53697 30.0281 5.26184L27.4531 9.2054C27.7823 9.44614 28.2056 9.81299 28.4761 10.0537L30.8982 8.8271L31.051 8.71246L30.9334 8.86149L29.6871 11.223Z" fill="#6F6F6F"/>
        <path d="M20.5037 6.22482L21.6089 3.80595L21.6795 3.58814L21.656 3.81742L21.7735 7.05022C22.1616 7.08461 22.5613 7.14193 22.9611 7.19925L22.7847 2.41883C22.2321 2.36151 21.6795 2.31565 21.1269 2.29272L20.0334 4.92941L19.9981 5.12429L19.9628 4.92941L18.8694 2.29272C18.3168 2.31565 17.7641 2.36151 17.2115 2.41883L17.0352 7.19925C17.4349 7.13047 17.8347 7.08461 18.2227 7.05022L18.3403 3.81742L18.3168 3.58814L18.3873 3.80595L19.4925 6.22482H20.5037Z" fill="#6F6F6F"/>
        <path d="M11.5452 10.0423C12.1801 9.38886 12.5446 8.62078 11.9097 7.89856C11.557 7.50879 10.9808 7.41708 10.487 7.61196L10.44 7.63489L10.4517 7.58903C10.5223 7.40561 10.5693 6.80949 10.052 6.39679C9.79331 6.20191 9.47585 6.12166 9.15839 6.15605C8.55874 6.21337 8.10019 6.61461 6.84211 7.9788C6.46586 8.3915 5.91324 9.04494 5.57227 9.4691L9.02906 12.6675C10.1813 11.4294 10.6516 10.9594 11.5452 10.0423ZM7.04199 9.25129C7.7357 8.42589 8.47644 7.66928 8.81742 7.37122C8.92324 7.27951 9.04081 7.1878 9.18191 7.14194C9.4053 7.08462 9.64046 7.23365 9.69925 7.46293C9.75804 7.69221 9.60519 7.91002 9.44058 8.08198C9.07609 8.48321 7.72394 9.85888 7.72394 9.85888L7.04199 9.25129ZM8.39413 10.5123C8.39413 10.5123 9.71101 9.15958 10.1343 8.72395C10.2989 8.552 10.4165 8.44882 10.5341 8.3915C10.6869 8.32272 10.8515 8.29979 11.0044 8.40297C11.1455 8.49468 11.216 8.66664 11.1807 8.82713C11.1337 9.02201 10.9808 9.20544 10.8398 9.343C10.6634 9.53789 9.0996 11.1543 9.0996 11.1658L8.39413 10.5123Z" fill="#6F6F6F"/>
        <path d="M20.0003 7.93298V19.5H8.13672C8.13672 13.1032 13.4395 7.93298 20.0003 7.93298Z" fill="#0066B1"/>
        <path d="M31.8519 19.5C31.8519 25.8854 26.5491 31.067 19.9883 31.067V19.5H31.8519Z" fill="#0066B1"/>
    </g>
    <defs>
        <clipPath id="clip0_320_9994">
            <rect width="40" height="39" fill="white"/>
        </clipPath>
    </defs>
</svg>
